<svg width="121" height="36" viewBox="0 0 121 36" fill="none" xmlns="http://www.w3.org/2000/svg">
<rect x="0.5" y="0.5" width="120" height="35" rx="5.5" fill="#F08152"/>
<g style="mix-blend-mode:hard-light">
<path d="M17.5 6.375C11.6241 6.375 6.84375 11.5899 6.84375 18C6.84375 24.4101 11.6241 29.625 17.5 29.625C23.3759 29.625 28.1562 24.4101 28.1562 18C28.1562 11.5899 23.3759 6.375 17.5 6.375ZM24.5456 11.7359C25.8133 13.4256 26.581 15.5776 26.601 17.9213C26.3009 17.8521 23.2916 17.1862 20.263 17.6017C20.0159 16.9435 19.7826 16.3645 19.4631 15.651C22.8284 14.1521 24.3537 12.0191 24.5456 11.7359V11.7359ZM23.5337 10.5877C23.37 10.842 21.9999 12.8511 18.7633 14.1745C17.2717 11.185 15.6186 8.72911 15.367 8.36161C18.2535 7.60256 21.2953 8.42114 23.5337 10.5877V10.5877ZM13.6303 9.02906C13.8703 9.38808 15.4968 11.847 17.0049 14.7717C12.7473 16.0051 8.99726 15.9873 8.59017 15.9815C9.18039 12.9002 11.0838 10.3394 13.6303 9.02906ZM8.39793 18.0151C8.39793 17.9136 8.39978 17.8125 8.40257 17.7117C8.8008 17.7206 13.2116 17.7826 17.7571 16.2986C18.0177 16.8549 18.2666 17.4196 18.4951 17.9837C15.2037 18.9951 12.2133 21.8991 10.7379 24.6543C9.28412 22.894 8.39793 20.5655 8.39793 18.0151ZM11.9131 25.8486C12.8638 23.7283 15.4442 20.9913 19.1137 19.6256C20.3916 23.2483 20.9201 26.2844 21.0554 27.1555C18.1288 28.5155 14.6095 28.1424 11.9131 25.8486V25.8486ZM22.5857 26.2465C22.4924 25.6425 22.0079 22.7357 20.8174 19.1668C23.6697 18.6687 26.1756 19.4841 26.487 19.5913C26.0813 22.3541 24.6276 24.7402 22.5857 26.2465Z" fill="white"/>
</g>
<g style="mix-blend-mode:hard-light">
<path d="M37.312 24.572V22.952H40.588C41.38 22.952 42.082 22.826 42.694 22.574C43.318 22.31 43.846 21.95 44.278 21.494C44.722 21.038 45.058 20.504 45.286 19.892C45.514 19.28 45.628 18.62 45.628 17.912C45.628 17.168 45.514 16.496 45.286 15.896C45.058 15.284 44.722 14.756 44.278 14.312C43.846 13.856 43.318 13.508 42.694 13.268C42.082 13.028 41.38 12.908 40.588 12.908H37.312V11.288H40.408C41.596 11.288 42.628 11.474 43.504 11.846C44.38 12.206 45.106 12.698 45.682 13.322C46.27 13.934 46.708 14.624 46.996 15.392C47.284 16.148 47.428 16.922 47.428 17.714V18.11C47.428 18.878 47.284 19.646 46.996 20.414C46.708 21.182 46.27 21.878 45.682 22.502C45.106 23.126 44.38 23.63 43.504 24.014C42.628 24.386 41.596 24.572 40.408 24.572H37.312ZM35.908 24.572V11.288H37.672V24.572H35.908ZM49.8943 24.5V14.888H51.2623V18.848H51.1903C51.1903 17.444 51.4963 16.418 52.1083 15.77C52.7323 15.11 53.6623 14.78 54.8983 14.78H55.2223V16.328H54.6103C53.6503 16.328 52.9123 16.586 52.3963 17.102C51.8803 17.606 51.6223 18.338 51.6223 19.298V24.5H49.8943ZM57.7451 24.5V14.888H59.4731V24.5H57.7451ZM56.2691 16.256V14.888H59.4731V16.256H56.2691ZM58.2311 13.34C57.8471 13.34 57.5591 13.238 57.3671 13.034C57.1871 12.83 57.0971 12.572 57.0971 12.26C57.0971 11.948 57.1871 11.69 57.3671 11.486C57.5591 11.282 57.8471 11.18 58.2311 11.18C58.6151 11.18 58.8971 11.282 59.0771 11.486C59.2691 11.69 59.3651 11.948 59.3651 12.26C59.3651 12.572 59.2691 12.83 59.0771 13.034C58.8971 13.238 58.6151 13.34 58.2311 13.34ZM67.8902 24.824C67.0982 24.824 66.3902 24.65 65.7662 24.302C65.1542 23.954 64.6682 23.45 64.3082 22.79C63.9482 22.118 63.7502 21.314 63.7142 20.378H64.1822V24.5H62.8142V11.36H64.5422V17.75L63.9302 19.064C63.9782 18.02 64.1882 17.168 64.5602 16.508C64.9322 15.848 65.4182 15.362 66.0182 15.05C66.6302 14.726 67.3022 14.564 68.0342 14.564C68.7182 14.564 69.3422 14.696 69.9062 14.96C70.4702 15.212 70.9562 15.566 71.3642 16.022C71.7722 16.466 72.0842 16.988 72.3002 17.588C72.5162 18.176 72.6242 18.812 72.6242 19.496V19.82C72.6242 20.504 72.5102 21.146 72.2822 21.746C72.0662 22.346 71.7482 22.88 71.3282 23.348C70.9082 23.804 70.4042 24.164 69.8162 24.428C69.2402 24.692 68.5982 24.824 67.8902 24.824ZM67.6922 23.312C68.3402 23.312 68.9042 23.156 69.3842 22.844C69.8642 22.532 70.2362 22.106 70.5002 21.566C70.7642 21.014 70.8962 20.378 70.8962 19.658C70.8962 18.938 70.7582 18.308 70.4822 17.768C70.2182 17.228 69.8462 16.814 69.3662 16.526C68.8862 16.226 68.3282 16.076 67.6922 16.076C67.1162 16.076 66.5822 16.208 66.0902 16.472C65.5982 16.724 65.2022 17.096 64.9022 17.588C64.6142 18.068 64.4702 18.65 64.4702 19.334V20.162C64.4702 20.822 64.6202 21.386 64.9202 21.854C65.2202 22.322 65.6162 22.682 66.1082 22.934C66.6002 23.186 67.1282 23.312 67.6922 23.312ZM80.3004 24.824C79.5084 24.824 78.8004 24.65 78.1764 24.302C77.5644 23.954 77.0784 23.45 76.7184 22.79C76.3584 22.118 76.1604 21.314 76.1244 20.378H76.5924V24.5H75.2244V11.36H76.9524V17.75L76.3404 19.064C76.3884 18.02 76.5984 17.168 76.9704 16.508C77.3424 15.848 77.8284 15.362 78.4284 15.05C79.0404 14.726 79.7124 14.564 80.4444 14.564C81.1284 14.564 81.7524 14.696 82.3164 14.96C82.8804 15.212 83.3664 15.566 83.7744 16.022C84.1824 16.466 84.4944 16.988 84.7104 17.588C84.9264 18.176 85.0344 18.812 85.0344 19.496V19.82C85.0344 20.504 84.9204 21.146 84.6924 21.746C84.4764 22.346 84.1584 22.88 83.7384 23.348C83.3184 23.804 82.8144 24.164 82.2264 24.428C81.6504 24.692 81.0084 24.824 80.3004 24.824ZM80.1024 23.312C80.7504 23.312 81.3144 23.156 81.7944 22.844C82.2744 22.532 82.6464 22.106 82.9104 21.566C83.1744 21.014 83.3064 20.378 83.3064 19.658C83.3064 18.938 83.1684 18.308 82.8924 17.768C82.6284 17.228 82.2564 16.814 81.7764 16.526C81.2964 16.226 80.7384 16.076 80.1024 16.076C79.5264 16.076 78.9924 16.208 78.5004 16.472C78.0084 16.724 77.6124 17.096 77.3124 17.588C77.0244 18.068 76.8804 18.65 76.8804 19.334V20.162C76.8804 20.822 77.0304 21.386 77.3304 21.854C77.6304 22.322 78.0264 22.682 78.5184 22.934C79.0104 23.186 79.5384 23.312 80.1024 23.312ZM92.7105 24.824C91.9185 24.824 91.2105 24.65 90.5865 24.302C89.9745 23.954 89.4885 23.45 89.1285 22.79C88.7685 22.118 88.5705 21.314 88.5345 20.378H89.0025V24.5H87.6345V11.36H89.3625V17.75L88.7505 19.064C88.7985 18.02 89.0085 17.168 89.3805 16.508C89.7525 15.848 90.2385 15.362 90.8385 15.05C91.4505 14.726 92.1225 14.564 92.8545 14.564C93.5385 14.564 94.1625 14.696 94.7265 14.96C95.2905 15.212 95.7765 15.566 96.1845 16.022C96.5925 16.466 96.9045 16.988 97.1205 17.588C97.3365 18.176 97.4445 18.812 97.4445 19.496V19.82C97.4445 20.504 97.3305 21.146 97.1025 21.746C96.8865 22.346 96.5685 22.88 96.1485 23.348C95.7285 23.804 95.2245 24.164 94.6365 24.428C94.0605 24.692 93.4185 24.824 92.7105 24.824ZM92.5125 23.312C93.1605 23.312 93.7245 23.156 94.2045 22.844C94.6845 22.532 95.0565 22.106 95.3205 21.566C95.5845 21.014 95.7165 20.378 95.7165 19.658C95.7165 18.938 95.5785 18.308 95.3025 17.768C95.0385 17.228 94.6665 16.814 94.1865 16.526C93.7065 16.226 93.1485 16.076 92.5125 16.076C91.9365 16.076 91.4025 16.208 90.9105 16.472C90.4185 16.724 90.0225 17.096 89.7225 17.588C89.4345 18.068 89.2905 18.65 89.2905 19.334V20.162C89.2905 20.822 89.4405 21.386 89.7405 21.854C90.0405 22.322 90.4365 22.682 90.9285 22.934C91.4205 23.186 91.9485 23.312 92.5125 23.312ZM100.153 24.5V11.36H101.881V24.5H100.153ZM98.8207 12.728V11.36H101.881V12.728H98.8207ZM109.281 24.824C108.441 24.824 107.715 24.68 107.103 24.392C106.491 24.104 105.993 23.726 105.609 23.258C105.225 22.778 104.937 22.244 104.745 21.656C104.565 21.068 104.475 20.468 104.475 19.856V19.532C104.475 18.908 104.565 18.302 104.745 17.714C104.937 17.126 105.225 16.598 105.609 16.13C105.993 15.65 106.479 15.272 107.067 14.996C107.667 14.708 108.369 14.564 109.173 14.564C110.217 14.564 111.075 14.792 111.747 15.248C112.431 15.692 112.935 16.268 113.259 16.976C113.595 17.684 113.763 18.44 113.763 19.244V20.018H105.231V18.722H112.503L112.107 19.424C112.107 18.74 111.999 18.152 111.783 17.66C111.567 17.156 111.243 16.766 110.811 16.49C110.379 16.214 109.833 16.076 109.173 16.076C108.489 16.076 107.919 16.232 107.463 16.544C107.019 16.856 106.683 17.282 106.455 17.822C106.239 18.362 106.131 18.986 106.131 19.694C106.131 20.378 106.239 20.996 106.455 21.548C106.683 22.088 107.031 22.52 107.499 22.844C107.967 23.156 108.561 23.312 109.281 23.312C110.037 23.312 110.649 23.144 111.117 22.808C111.597 22.472 111.885 22.082 111.981 21.638H113.601C113.469 22.298 113.205 22.868 112.809 23.348C112.413 23.828 111.915 24.194 111.315 24.446C110.715 24.698 110.037 24.824 109.281 24.824Z" fill="white"/>
</g>
<rect x="0.5" y="0.5" width="120" height="35" rx="5.5" stroke="#EC6127"/>
</svg>
