<svg width="90" height="35" viewBox="0 0 90 35" fill="none" xmlns="http://www.w3.org/2000/svg">
<rect x="0.5" y="0.5" width="89" height="34" rx="5.5" fill="#F08152"/>
<g style="mix-blend-mode:hard-light">
<path d="M28.0832 14.4437C28.2508 14.2984 28.5 14.4344 28.5 14.6641V24.25C28.5 25.4922 27.5762 26.5 26.4375 26.5H8.5625C7.42383 26.5 6.5 25.4922 6.5 24.25V14.6687C6.5 14.4344 6.74492 14.3031 6.9168 14.4484C7.8793 15.2641 9.15547 16.3 13.5383 19.7734C14.4449 20.4953 15.9746 22.0141 17.5 22.0047C19.034 22.0187 20.5937 20.4672 21.466 19.7734C25.8488 16.3 27.1207 15.2594 28.0832 14.4437ZM17.5 20.5C18.4969 20.5187 19.932 19.1312 20.6539 18.5594C26.3559 14.0453 26.7898 13.6516 28.1047 12.5266C28.3539 12.3156 28.5 11.9875 28.5 11.6406V10.75C28.5 9.50781 27.5762 8.5 26.4375 8.5H8.5625C7.42383 8.5 6.5 9.50781 6.5 10.75V11.6406C6.5 11.9875 6.64609 12.3109 6.89531 12.5266C8.21016 13.6469 8.64414 14.0453 14.3461 18.5594C15.068 19.1312 16.5031 20.5187 17.5 20.5Z" fill="white"/>
</g>
<g style="mix-blend-mode:hard-light">
<path d="M35.908 24V10.86H37.672V24H35.908ZM37.312 24V22.416H43.684V24H37.312ZM37.312 18.114V16.53H43.126V18.114H37.312ZM37.312 12.444V10.86H43.504V12.444H37.312ZM46.449 24V14.388H47.817V18.51H47.601C47.601 17.574 47.721 16.782 47.961 16.134C48.213 15.474 48.585 14.97 49.077 14.622C49.569 14.274 50.193 14.1 50.949 14.1H51.021C51.777 14.1 52.401 14.274 52.893 14.622C53.397 14.97 53.769 15.474 54.009 16.134C54.249 16.782 54.369 17.574 54.369 18.51H53.865C53.865 17.574 53.991 16.782 54.243 16.134C54.495 15.474 54.867 14.97 55.359 14.622C55.863 14.274 56.493 14.1 57.249 14.1H57.321C58.077 14.1 58.707 14.274 59.211 14.622C59.715 14.97 60.087 15.474 60.327 16.134C60.579 16.782 60.705 17.574 60.705 18.51V24H58.977V18.132C58.977 17.352 58.785 16.752 58.401 16.332C58.017 15.9 57.483 15.684 56.799 15.684C56.091 15.684 55.521 15.912 55.089 16.368C54.657 16.812 54.441 17.436 54.441 18.24V24H52.713V18.132C52.713 17.352 52.521 16.752 52.137 16.332C51.753 15.9 51.219 15.684 50.535 15.684C49.827 15.684 49.257 15.912 48.825 16.368C48.393 16.812 48.177 17.436 48.177 18.24V24H46.449ZM69.6829 24V21.12H69.3949V17.79C69.3949 17.13 69.2209 16.632 68.8729 16.296C68.5369 15.96 68.0389 15.792 67.3789 15.792C67.0069 15.792 66.6229 15.798 66.2269 15.81C65.8309 15.822 65.4529 15.834 65.0929 15.846C64.7329 15.858 64.4209 15.876 64.1569 15.9V14.388C64.4209 14.364 64.6969 14.346 64.9849 14.334C65.2849 14.31 65.5909 14.298 65.9029 14.298C66.2149 14.286 66.5149 14.28 66.8029 14.28C67.7869 14.28 68.5909 14.4 69.2149 14.64C69.8389 14.868 70.3009 15.246 70.6009 15.774C70.9009 16.302 71.0509 17.016 71.0509 17.916V24H69.6829ZM66.5329 24.252C65.8129 24.252 65.1889 24.132 64.6609 23.892C64.1449 23.64 63.7429 23.28 63.4549 22.812C63.1789 22.344 63.0409 21.78 63.0409 21.12C63.0409 20.436 63.1909 19.866 63.4909 19.41C63.8029 18.954 64.2529 18.612 64.8409 18.384C65.4289 18.144 66.1369 18.024 66.9649 18.024H69.5749V19.32H66.8929C66.1969 19.32 65.6629 19.488 65.2909 19.824C64.9189 20.16 64.7329 20.592 64.7329 21.12C64.7329 21.648 64.9189 22.074 65.2909 22.398C65.6629 22.722 66.1969 22.884 66.8929 22.884C67.3009 22.884 67.6909 22.812 68.0629 22.668C68.4349 22.512 68.7409 22.26 68.9809 21.912C69.2329 21.552 69.3709 21.06 69.3949 20.436L69.8629 21.12C69.8029 21.804 69.6349 22.38 69.3589 22.848C69.0949 23.304 68.7229 23.652 68.2429 23.892C67.7749 24.132 67.2049 24.252 66.5329 24.252ZM74.6904 24V14.388H76.4184V24H74.6904ZM73.2144 15.756V14.388H76.4184V15.756H73.2144ZM75.1764 12.84C74.7924 12.84 74.5044 12.738 74.3124 12.534C74.1324 12.33 74.0424 12.072 74.0424 11.76C74.0424 11.448 74.1324 11.19 74.3124 10.986C74.5044 10.782 74.7924 10.68 75.1764 10.68C75.5604 10.68 75.8424 10.782 76.0224 10.986C76.2144 11.19 76.3104 11.448 76.3104 11.76C76.3104 12.072 76.2144 12.33 76.0224 12.534C75.8424 12.738 75.5604 12.84 75.1764 12.84ZM79.8675 24V10.86H81.5955V24H79.8675ZM78.5355 12.228V10.86H81.5955V12.228H78.5355Z" fill="white"/>
</g>
<rect x="0.5" y="0.5" width="89" height="34" rx="5.5" stroke="#EC6127"/>
</svg>
