<svg width="107" height="36" viewBox="0 0 107 36" fill="none" xmlns="http://www.w3.org/2000/svg">
<rect x="0.5" y="0.5" width="106" height="35" rx="5.5" fill="#F08152"/>
<g style="mix-blend-mode:hard-light">
<path d="M13.8585 24.9186C13.8585 25.0123 13.7565 25.0873 13.6278 25.0873C13.4815 25.1014 13.3794 25.0264 13.3794 24.9186C13.3794 24.8248 13.4815 24.7498 13.6101 24.7498C13.7431 24.7357 13.8585 24.8107 13.8585 24.9186ZM12.479 24.7076C12.448 24.8014 12.5367 24.9092 12.6698 24.9373C12.7851 24.9842 12.9181 24.9373 12.9448 24.8436C12.9714 24.7498 12.8871 24.642 12.754 24.5998C12.6387 24.567 12.5101 24.6139 12.479 24.7076ZM14.4395 24.6279C14.3109 24.6607 14.2222 24.7498 14.2355 24.8576C14.2488 24.9514 14.3641 25.0123 14.4972 24.9795C14.6258 24.9467 14.7145 24.8576 14.7012 24.7639C14.6879 24.6748 14.5681 24.6139 14.4395 24.6279ZM17.3581 6.66544C11.206 6.66544 6.5 11.6014 6.5 18.1029C6.5 23.3014 9.59597 27.7498 14.0181 29.3154C14.5859 29.4232 14.7855 29.0529 14.7855 28.7482C14.7855 28.4576 14.7722 26.8545 14.7722 25.8701C14.7722 25.8701 11.6673 26.5732 11.0153 24.4732C11.0153 24.4732 10.5097 23.1092 9.78226 22.7576C9.78226 22.7576 8.76653 22.0217 9.85323 22.0357C9.85323 22.0357 10.9577 22.1295 11.5653 23.2451C12.5367 25.0545 14.1645 24.5342 14.7988 24.2248C14.9008 23.4748 15.1891 22.9545 15.5085 22.6451C13.029 22.3545 10.5274 21.9748 10.5274 17.4654C10.5274 16.1764 10.8645 15.5295 11.5742 14.7045C11.4589 14.3998 11.0819 13.1436 11.6895 11.5217C12.6165 11.217 14.75 12.7873 14.75 12.7873C15.6371 12.5248 16.5907 12.3889 17.5355 12.3889C18.4802 12.3889 19.4339 12.5248 20.321 12.7873C20.321 12.7873 22.4544 11.2123 23.3815 11.5217C23.9891 13.1482 23.6121 14.3998 23.4968 14.7045C24.2065 15.5342 24.6411 16.1811 24.6411 17.4654C24.6411 21.9889 22.0286 22.3498 19.5492 22.6451C19.9573 23.0154 20.3032 23.7186 20.3032 24.8201C20.3032 26.3998 20.2899 28.3545 20.2899 28.7389C20.2899 29.0436 20.494 29.4139 21.0573 29.3061C25.4927 27.7498 28.5 23.3014 28.5 18.1029C28.5 11.6014 23.5101 6.66544 17.3581 6.66544ZM10.8113 22.8326C10.7536 22.8795 10.7669 22.9873 10.8423 23.0764C10.9133 23.1514 11.0153 23.1842 11.073 23.1232C11.1306 23.0764 11.1173 22.9686 11.0419 22.8795C10.971 22.8045 10.869 22.7717 10.8113 22.8326ZM10.3323 22.4529C10.3012 22.5139 10.3456 22.5889 10.4343 22.6357C10.5052 22.6826 10.594 22.6686 10.625 22.6029C10.656 22.542 10.6117 22.467 10.523 22.4201C10.4343 22.392 10.3633 22.4061 10.3323 22.4529ZM11.7694 24.1217C11.6984 24.1826 11.725 24.3232 11.827 24.4123C11.929 24.5201 12.0577 24.5342 12.1153 24.4592C12.173 24.3982 12.1464 24.2576 12.0577 24.1686C11.9601 24.0607 11.827 24.0467 11.7694 24.1217ZM11.2637 23.4326C11.1927 23.4795 11.1927 23.6014 11.2637 23.7092C11.3347 23.817 11.4544 23.8639 11.5121 23.817C11.5831 23.7561 11.5831 23.6342 11.5121 23.5264C11.45 23.4186 11.3347 23.3717 11.2637 23.4326Z" fill="white"/>
</g>
<g style="mix-blend-mode:hard-light">
<path d="M41.776 24.824C40.756 24.824 39.832 24.656 39.004 24.32C38.176 23.984 37.462 23.51 36.862 22.898C36.274 22.286 35.818 21.566 35.494 20.738C35.17 19.898 35.008 18.986 35.008 18.002V17.606C35.008 16.766 35.152 15.956 35.44 15.176C35.74 14.384 36.166 13.676 36.718 13.052C37.282 12.416 37.966 11.918 38.77 11.558C39.574 11.186 40.48 11 41.488 11C42.58 11 43.552 11.21 44.404 11.63C45.256 12.038 45.94 12.614 46.456 13.358C46.972 14.09 47.272 14.942 47.356 15.914H45.556C45.472 15.182 45.232 14.576 44.836 14.096C44.44 13.604 43.948 13.238 43.36 12.998C42.784 12.746 42.16 12.62 41.488 12.62C40.804 12.62 40.174 12.746 39.598 12.998C39.022 13.238 38.524 13.586 38.104 14.042C37.696 14.498 37.378 15.044 37.15 15.68C36.922 16.316 36.808 17.03 36.808 17.822C36.808 18.722 36.928 19.514 37.168 20.198C37.42 20.87 37.768 21.434 38.212 21.89C38.656 22.334 39.178 22.67 39.778 22.898C40.39 23.126 41.056 23.24 41.776 23.24C42.796 23.24 43.69 23.036 44.458 22.628C45.238 22.208 45.826 21.668 46.222 21.008L45.574 23.15V19.244H47.23V22.376C46.642 23.144 45.886 23.744 44.962 24.176C44.038 24.608 42.976 24.824 41.776 24.824ZM41.308 19.604V18.128H48.346V19.604H41.308ZM51.083 24.5V14.888H52.811V24.5H51.083ZM49.607 16.256V14.888H52.811V16.256H49.607ZM51.569 13.34C51.185 13.34 50.897 13.238 50.705 13.034C50.525 12.83 50.435 12.572 50.435 12.26C50.435 11.948 50.525 11.69 50.705 11.486C50.897 11.282 51.185 11.18 51.569 11.18C51.953 11.18 52.235 11.282 52.415 11.486C52.607 11.69 52.703 11.948 52.703 12.26C52.703 12.572 52.607 12.83 52.415 13.034C52.235 13.238 51.953 13.34 51.569 13.34ZM59.8961 24.608C59.1761 24.608 58.5521 24.506 58.0241 24.302C57.5081 24.098 57.1061 23.75 56.8181 23.258C56.5421 22.754 56.4041 22.076 56.4041 21.224V11.972H58.0601V21.44C58.0601 21.956 58.1981 22.358 58.4741 22.646C58.7621 22.922 59.1641 23.06 59.6801 23.06H61.3721V24.608H59.8961ZM54.7481 16.184V14.888H61.3721V16.184H54.7481ZM72.9602 24.5V11.36H74.7242V24.5H72.9602ZM64.0682 24.5V11.36H65.8322V24.5H64.0682ZM65.4722 18.758V17.174H73.3202V18.758H65.4722ZM81.613 24.788C80.473 24.788 79.597 24.416 78.985 23.672C78.373 22.928 78.067 21.854 78.067 20.45V14.87H79.795V20.792C79.795 21.548 79.999 22.142 80.407 22.574C80.815 22.994 81.367 23.204 82.063 23.204C82.783 23.204 83.371 22.976 83.827 22.52C84.283 22.052 84.511 21.416 84.511 20.612V14.87H86.239V24.5H84.871V20.378H85.087C85.087 21.326 84.961 22.13 84.709 22.79C84.457 23.438 84.079 23.936 83.575 24.284C83.083 24.62 82.453 24.788 81.685 24.788H81.613ZM94.6617 24.824C93.8697 24.824 93.1617 24.65 92.5377 24.302C91.9257 23.954 91.4397 23.45 91.0797 22.79C90.7197 22.118 90.5217 21.314 90.4857 20.378H90.9537V24.5H89.5857V11.36H91.3137V17.75L90.7017 19.064C90.7497 18.02 90.9597 17.168 91.3317 16.508C91.7037 15.848 92.1897 15.362 92.7897 15.05C93.4017 14.726 94.0737 14.564 94.8057 14.564C95.4897 14.564 96.1137 14.696 96.6777 14.96C97.2417 15.212 97.7277 15.566 98.1357 16.022C98.5437 16.466 98.8557 16.988 99.0717 17.588C99.2877 18.176 99.3957 18.812 99.3957 19.496V19.82C99.3957 20.504 99.2817 21.146 99.0537 21.746C98.8377 22.346 98.5197 22.88 98.0997 23.348C97.6797 23.804 97.1757 24.164 96.5877 24.428C96.0117 24.692 95.3697 24.824 94.6617 24.824ZM94.4637 23.312C95.1117 23.312 95.6757 23.156 96.1557 22.844C96.6357 22.532 97.0077 22.106 97.2717 21.566C97.5357 21.014 97.6677 20.378 97.6677 19.658C97.6677 18.938 97.5297 18.308 97.2537 17.768C96.9897 17.228 96.6177 16.814 96.1377 16.526C95.6577 16.226 95.0997 16.076 94.4637 16.076C93.8877 16.076 93.3537 16.208 92.8617 16.472C92.3697 16.724 91.9737 17.096 91.6737 17.588C91.3857 18.068 91.2417 18.65 91.2417 19.334V20.162C91.2417 20.822 91.3917 21.386 91.6917 21.854C91.9917 22.322 92.3877 22.682 92.8797 22.934C93.3717 23.186 93.8997 23.312 94.4637 23.312Z" fill="white"/>
</g>
<rect x="0.5" y="0.5" width="106" height="35" rx="5.5" stroke="#EC6127"/>
</svg>
