<svg width="118" height="36" viewBox="0 0 118 36" fill="none" xmlns="http://www.w3.org/2000/svg">
<rect x="0.5" y="0.5" width="117" height="35" rx="5.5" fill="#F08152"/>
<path d="M26.9286 7.5H8.06652C7.20223 7.5 6.5 8.17969 6.5 9.01406V26.9859C6.5 27.8203 7.20223 28.5 8.06652 28.5H26.9286C27.7929 28.5 28.5 27.8203 28.5 26.9859V9.01406C28.5 8.17969 27.7929 7.5 26.9286 7.5ZM13.1491 25.5H9.88839V15.4781H13.154V25.5H13.1491ZM11.5187 14.1094C10.4728 14.1094 9.62812 13.2984 9.62812 12.3047C9.62812 11.3109 10.4728 10.5 11.5187 10.5C12.5598 10.5 13.4094 11.3109 13.4094 12.3047C13.4094 13.3031 12.5647 14.1094 11.5187 14.1094V14.1094ZM25.3719 25.5H22.1112V20.625C22.1112 19.4625 22.0866 17.9672 20.417 17.9672C18.7179 17.9672 18.4576 19.2328 18.4576 20.5406V25.5H15.1969V15.4781H18.325V16.8469H18.3692C18.8062 16.0594 19.8719 15.2297 21.458 15.2297C24.758 15.2297 25.3719 17.3062 25.3719 20.0062V25.5V25.5Z" fill="white"/>
<g style="mix-blend-mode:hard-light">
<path d="M35.908 24.5V11.36H37.672V24.5H35.908ZM37.312 24.5V22.916H43.324V24.5H37.312ZM45.915 24.5V14.888H47.643V24.5H45.915ZM44.439 16.256V14.888H47.643V16.256H44.439ZM46.401 13.34C46.017 13.34 45.729 13.238 45.537 13.034C45.357 12.83 45.267 12.572 45.267 12.26C45.267 11.948 45.357 11.69 45.537 11.486C45.729 11.282 46.017 11.18 46.401 11.18C46.785 11.18 47.067 11.282 47.247 11.486C47.439 11.69 47.535 11.948 47.535 12.26C47.535 12.572 47.439 12.83 47.247 13.034C47.067 13.238 46.785 13.34 46.401 13.34ZM50.9841 24.5V14.888H52.3521V19.01H52.1361C52.1361 18.062 52.2621 17.264 52.5141 16.616C52.7781 15.956 53.1741 15.458 53.7021 15.122C54.2301 14.774 54.8961 14.6 55.7001 14.6H55.7721C56.9841 14.6 57.8781 14.978 58.4541 15.734C59.0421 16.49 59.3361 17.582 59.3361 19.01V24.5H57.6081V18.65C57.6081 17.906 57.3981 17.312 56.9781 16.868C56.5581 16.412 55.9821 16.184 55.2501 16.184C54.4941 16.184 53.8821 16.418 53.4141 16.886C52.9461 17.354 52.7121 17.978 52.7121 18.758V24.5H50.9841ZM69.1218 24.5L65.5038 20.018H63.9198L68.3298 14.888H70.1478L66.1518 19.514L66.2778 18.596L71.1198 24.5H69.1218ZM62.4978 24.5V11.36H64.2258V24.5H62.4978ZM76.6912 24.824C75.8512 24.824 75.1252 24.68 74.5132 24.392C73.9012 24.104 73.4032 23.726 73.0192 23.258C72.6352 22.778 72.3472 22.244 72.1552 21.656C71.9752 21.068 71.8852 20.468 71.8852 19.856V19.532C71.8852 18.908 71.9752 18.302 72.1552 17.714C72.3472 17.126 72.6352 16.598 73.0192 16.13C73.4032 15.65 73.8892 15.272 74.4772 14.996C75.0772 14.708 75.7792 14.564 76.5832 14.564C77.6272 14.564 78.4852 14.792 79.1572 15.248C79.8412 15.692 80.3452 16.268 80.6692 16.976C81.0052 17.684 81.1732 18.44 81.1732 19.244V20.018H72.6412V18.722H79.9132L79.5172 19.424C79.5172 18.74 79.4092 18.152 79.1932 17.66C78.9772 17.156 78.6532 16.766 78.2212 16.49C77.7892 16.214 77.2432 16.076 76.5832 16.076C75.8992 16.076 75.3292 16.232 74.8732 16.544C74.4292 16.856 74.0932 17.282 73.8652 17.822C73.6492 18.362 73.5412 18.986 73.5412 19.694C73.5412 20.378 73.6492 20.996 73.8652 21.548C74.0932 22.088 74.4412 22.52 74.9092 22.844C75.3772 23.156 75.9712 23.312 76.6912 23.312C77.4472 23.312 78.0592 23.144 78.5272 22.808C79.0072 22.472 79.2952 22.082 79.3912 21.638H81.0112C80.8792 22.298 80.6152 22.868 80.2192 23.348C79.8232 23.828 79.3252 24.194 78.7252 24.446C78.1252 24.698 77.4472 24.824 76.6912 24.824ZM87.6407 24.824C86.9567 24.824 86.3267 24.698 85.7507 24.446C85.1747 24.194 84.6707 23.84 84.2387 23.384C83.8187 22.928 83.4887 22.4 83.2487 21.8C83.0207 21.2 82.9067 20.552 82.9067 19.856V19.532C82.9067 18.848 83.0207 18.206 83.2487 17.606C83.4767 17.006 83.7947 16.478 84.2027 16.022C84.6227 15.566 85.1147 15.212 85.6787 14.96C86.2547 14.696 86.8907 14.564 87.5867 14.564C88.3187 14.564 88.9847 14.72 89.5847 15.032C90.1847 15.332 90.6767 15.806 91.0607 16.454C91.4447 17.102 91.6607 17.942 91.7087 18.974L90.9887 17.822V11.36H92.7167V24.5H91.3487V20.234H91.8527C91.8047 21.326 91.5767 22.214 91.1687 22.898C90.7607 23.57 90.2447 24.062 89.6207 24.374C89.0087 24.674 88.3487 24.824 87.6407 24.824ZM87.8747 23.312C88.4627 23.312 88.9967 23.18 89.4767 22.916C89.9567 22.652 90.3407 22.274 90.6287 21.782C90.9167 21.278 91.0607 20.69 91.0607 20.018V19.19C91.0607 18.53 90.9107 17.972 90.6107 17.516C90.3227 17.048 89.9327 16.694 89.4407 16.454C88.9607 16.202 88.4327 16.076 87.8567 16.076C87.2207 16.076 86.6567 16.226 86.1647 16.526C85.6847 16.826 85.3067 17.246 85.0307 17.786C84.7667 18.326 84.6347 18.962 84.6347 19.694C84.6347 20.426 84.7727 21.068 85.0487 21.62C85.3247 22.16 85.7087 22.58 86.2007 22.88C86.6927 23.168 87.2507 23.312 87.8747 23.312ZM96.3249 24.5V11.36H98.0889V24.5H96.3249ZM101.697 24.5V14.888H103.065V19.01H102.849C102.849 18.062 102.975 17.264 103.227 16.616C103.491 15.956 103.887 15.458 104.415 15.122C104.943 14.774 105.609 14.6 106.413 14.6H106.485C107.697 14.6 108.591 14.978 109.167 15.734C109.755 16.49 110.049 17.582 110.049 19.01V24.5H108.321V18.65C108.321 17.906 108.111 17.312 107.691 16.868C107.271 16.412 106.695 16.184 105.963 16.184C105.207 16.184 104.595 16.418 104.127 16.886C103.659 17.354 103.425 17.978 103.425 18.758V24.5H101.697Z" fill="white"/>
</g>
<rect x="0.5" y="0.5" width="117" height="35" rx="5.5" stroke="#EC6127"/>
</svg>
