<svg width="115" height="36" viewBox="0 0 115 36" fill="none" xmlns="http://www.w3.org/2000/svg">
<rect x="0.5" y="0.5" width="114" height="35" rx="5.5" fill="#F08152"/>
<path d="M9.57011 12.675C9.59589 12.3984 9.49707 12.1219 9.308 11.9344L7.37011 9.38439V9.0047H13.3943L18.0521 20.1469L22.1471 9.0047H27.892V9.38439L26.2334 11.1188C26.0916 11.2359 26.0186 11.4328 26.0486 11.625V24.375C26.0186 24.5672 26.0916 24.7641 26.2334 24.8813L27.8533 26.6156V26.9953H19.7022V26.6156L21.3822 24.8391C21.5455 24.6609 21.5455 24.6047 21.5455 24.3328V14.0297L16.8748 26.9625H16.2432L10.8119 14.0297V22.6969C10.7646 23.0625 10.8764 23.4281 11.1127 23.6906L13.2955 26.5781V26.9578H7.108V26.5828L9.29082 23.6906C9.52285 23.4281 9.63027 23.0578 9.57011 22.6969V12.675Z" fill="white"/>
<g style="mix-blend-mode:hard-light">
<path d="M35.908 24.5V11.36H38.248L42.136 20.126H42.424L46.294 11.36H48.652V24.5H46.888V13.286L47.014 13.322L43.288 21.782H41.128L37.384 13.322L37.528 13.286V24.5H35.908ZM56.3006 24.824C55.4606 24.824 54.7346 24.68 54.1226 24.392C53.5106 24.104 53.0126 23.726 52.6286 23.258C52.2446 22.778 51.9566 22.244 51.7646 21.656C51.5846 21.068 51.4946 20.468 51.4946 19.856V19.532C51.4946 18.908 51.5846 18.302 51.7646 17.714C51.9566 17.126 52.2446 16.598 52.6286 16.13C53.0126 15.65 53.4986 15.272 54.0866 14.996C54.6866 14.708 55.3886 14.564 56.1926 14.564C57.2366 14.564 58.0946 14.792 58.7666 15.248C59.4506 15.692 59.9546 16.268 60.2786 16.976C60.6146 17.684 60.7826 18.44 60.7826 19.244V20.018H52.2506V18.722H59.5226L59.1266 19.424C59.1266 18.74 59.0186 18.152 58.8026 17.66C58.5866 17.156 58.2626 16.766 57.8306 16.49C57.3986 16.214 56.8526 16.076 56.1926 16.076C55.5086 16.076 54.9386 16.232 54.4826 16.544C54.0386 16.856 53.7026 17.282 53.4746 17.822C53.2586 18.362 53.1506 18.986 53.1506 19.694C53.1506 20.378 53.2586 20.996 53.4746 21.548C53.7026 22.088 54.0506 22.52 54.5186 22.844C54.9866 23.156 55.5806 23.312 56.3006 23.312C57.0566 23.312 57.6686 23.144 58.1366 22.808C58.6166 22.472 58.9046 22.082 59.0006 21.638H60.6206C60.4886 22.298 60.2246 22.868 59.8286 23.348C59.4326 23.828 58.9346 24.194 58.3346 24.446C57.7346 24.698 57.0566 24.824 56.3006 24.824ZM67.2501 24.824C66.5661 24.824 65.9361 24.698 65.3601 24.446C64.7841 24.194 64.2801 23.84 63.8481 23.384C63.4281 22.928 63.0981 22.4 62.8581 21.8C62.6301 21.2 62.5161 20.552 62.5161 19.856V19.532C62.5161 18.848 62.6301 18.206 62.8581 17.606C63.0861 17.006 63.4041 16.478 63.8121 16.022C64.2321 15.566 64.7241 15.212 65.2881 14.96C65.8641 14.696 66.5001 14.564 67.1961 14.564C67.9281 14.564 68.5941 14.72 69.1941 15.032C69.7941 15.332 70.2861 15.806 70.6701 16.454C71.0541 17.102 71.2701 17.942 71.3181 18.974L70.5981 17.822V11.36H72.3261V24.5H70.9581V20.234H71.4621C71.4141 21.326 71.1861 22.214 70.7781 22.898C70.3701 23.57 69.8541 24.062 69.2301 24.374C68.6181 24.674 67.9581 24.824 67.2501 24.824ZM67.4841 23.312C68.0721 23.312 68.6061 23.18 69.0861 22.916C69.5661 22.652 69.9501 22.274 70.2381 21.782C70.5261 21.278 70.6701 20.69 70.6701 20.018V19.19C70.6701 18.53 70.5201 17.972 70.2201 17.516C69.9321 17.048 69.5421 16.694 69.0501 16.454C68.5701 16.202 68.0421 16.076 67.4661 16.076C66.8301 16.076 66.2661 16.226 65.7741 16.526C65.2941 16.826 64.9161 17.246 64.6401 17.786C64.3761 18.326 64.2441 18.962 64.2441 19.694C64.2441 20.426 64.3821 21.068 64.6581 21.62C64.9341 22.16 65.3181 22.58 65.8101 22.88C66.3021 23.168 66.8601 23.312 67.4841 23.312ZM76.1142 24.5V14.888H77.8422V24.5H76.1142ZM74.6382 16.256V14.888H77.8422V16.256H74.6382ZM76.6002 13.34C76.2162 13.34 75.9282 13.238 75.7362 13.034C75.5562 12.83 75.4662 12.572 75.4662 12.26C75.4662 11.948 75.5562 11.69 75.7362 11.486C75.9282 11.282 76.2162 11.18 76.6002 11.18C76.9842 11.18 77.2662 11.282 77.4462 11.486C77.6382 11.69 77.7342 11.948 77.7342 12.26C77.7342 12.572 77.6382 12.83 77.4462 13.034C77.2662 13.238 76.9842 13.34 76.6002 13.34ZM84.5133 24.788C83.3733 24.788 82.4973 24.416 81.8853 23.672C81.2733 22.928 80.9673 21.854 80.9673 20.45V14.87H82.6953V20.792C82.6953 21.548 82.8993 22.142 83.3073 22.574C83.7153 22.994 84.2673 23.204 84.9633 23.204C85.6833 23.204 86.2713 22.976 86.7273 22.52C87.1833 22.052 87.4113 21.416 87.4113 20.612V14.87H89.1393V24.5H87.7713V20.378H87.9873C87.9873 21.326 87.8613 22.13 87.6093 22.79C87.3573 23.438 86.9793 23.936 86.4753 24.284C85.9833 24.62 85.3533 24.788 84.5853 24.788H84.5133ZM92.4861 24.5V14.888H93.8541V19.01H93.6381C93.6381 18.074 93.7581 17.282 93.9981 16.634C94.2501 15.974 94.6221 15.47 95.1141 15.122C95.6061 14.774 96.2301 14.6 96.9861 14.6H97.0581C97.8141 14.6 98.4381 14.774 98.9301 15.122C99.4341 15.47 99.8061 15.974 100.046 16.634C100.286 17.282 100.406 18.074 100.406 19.01H99.9021C99.9021 18.074 100.028 17.282 100.28 16.634C100.532 15.974 100.904 15.47 101.396 15.122C101.9 14.774 102.53 14.6 103.286 14.6H103.358C104.114 14.6 104.744 14.774 105.248 15.122C105.752 15.47 106.124 15.974 106.364 16.634C106.616 17.282 106.742 18.074 106.742 19.01V24.5H105.014V18.632C105.014 17.852 104.822 17.252 104.438 16.832C104.054 16.4 103.52 16.184 102.836 16.184C102.128 16.184 101.558 16.412 101.126 16.868C100.694 17.312 100.478 17.936 100.478 18.74V24.5H98.7501V18.632C98.7501 17.852 98.5581 17.252 98.1741 16.832C97.7901 16.4 97.2561 16.184 96.5721 16.184C95.8641 16.184 95.2941 16.412 94.8621 16.868C94.4301 17.312 94.2141 17.936 94.2141 18.74V24.5H92.4861Z" fill="white"/>
</g>
<rect x="0.5" y="0.5" width="114" height="35" rx="5.5" stroke="#EC6127"/>
</svg>
