<svg width="121" height="36" viewBox="0 0 121 36" fill="none" xmlns="http://www.w3.org/2000/svg">
<rect x="0.5" y="0.5" width="120" height="35" rx="5.5" fill="#F08152"/>
<path d="M11.25 28.9375H23.75V9.40625C23.75 8.1123 22.7002 7.0625 21.4062 7.0625H13.5938C12.2998 7.0625 11.25 8.1123 11.25 9.40625V28.9375ZM14.375 10.1875H20.625V11.75H14.375V10.1875ZM30 14.0938V26.5938C30 27.8877 28.9502 28.9375 27.6562 28.9375H25.3125V11.75H27.6562C28.9502 11.75 30 12.7998 30 14.0938ZM9.6875 28.9375H7.34375C6.0498 28.9375 5 27.8877 5 26.5938V14.0938C5 12.7998 6.0498 11.75 7.34375 11.75H9.6875V28.9375Z" fill="white"/>
<g style="mix-blend-mode:hard-light">
<path d="M37.312 19.928V18.38H40.246C40.87 18.38 41.386 18.26 41.794 18.02C42.202 17.768 42.508 17.432 42.712 17.012C42.928 16.592 43.036 16.124 43.036 15.608C43.036 15.08 42.928 14.606 42.712 14.186C42.508 13.766 42.202 13.436 41.794 13.196C41.386 12.956 40.87 12.836 40.246 12.836H37.312V11.288H39.922C41.002 11.288 41.902 11.462 42.622 11.81C43.354 12.146 43.906 12.626 44.278 13.25C44.65 13.874 44.836 14.612 44.836 15.464V15.752C44.836 16.592 44.65 17.33 44.278 17.966C43.906 18.59 43.354 19.076 42.622 19.424C41.902 19.76 41.002 19.928 39.922 19.928H37.312ZM35.908 24.5V11.288H37.672V24.5H35.908ZM51.4219 24.824C50.5819 24.824 49.8439 24.68 49.2079 24.392C48.5719 24.104 48.0319 23.726 47.5879 23.258C47.1559 22.778 46.8259 22.244 46.5979 21.656C46.3819 21.068 46.2739 20.468 46.2739 19.856V19.532C46.2739 18.92 46.3879 18.32 46.6159 17.732C46.8439 17.132 47.1799 16.598 47.6239 16.13C48.0679 15.65 48.6079 15.272 49.2439 14.996C49.8799 14.708 50.6059 14.564 51.4219 14.564C52.2379 14.564 52.9639 14.708 53.5999 14.996C54.2359 15.272 54.7759 15.65 55.2199 16.13C55.6639 16.598 55.9999 17.132 56.2279 17.732C56.4559 18.32 56.5699 18.92 56.5699 19.532V19.856C56.5699 20.468 56.4559 21.068 56.2279 21.656C56.0119 22.244 55.6819 22.778 55.2379 23.258C54.8059 23.726 54.2719 24.104 53.6359 24.392C52.9999 24.68 52.2619 24.824 51.4219 24.824ZM51.4219 23.276C52.1419 23.276 52.7539 23.12 53.2579 22.808C53.7739 22.484 54.1639 22.052 54.4279 21.512C54.7039 20.972 54.8419 20.366 54.8419 19.694C54.8419 19.01 54.7039 18.398 54.4279 17.858C54.1519 17.318 53.7559 16.892 53.2399 16.58C52.7359 16.268 52.1299 16.112 51.4219 16.112C50.7259 16.112 50.1199 16.268 49.6039 16.58C49.0879 16.892 48.6919 17.318 48.4159 17.858C48.1399 18.398 48.0019 19.01 48.0019 19.694C48.0019 20.366 48.1339 20.972 48.3979 21.512C48.6739 22.052 49.0639 22.484 49.5679 22.808C50.0839 23.12 50.7019 23.276 51.4219 23.276ZM59.158 24.5V14.888H60.526V18.848H60.454C60.454 17.444 60.76 16.418 61.372 15.77C61.996 15.11 62.926 14.78 64.162 14.78H64.486V16.328H63.874C62.914 16.328 62.176 16.586 61.66 17.102C61.144 17.606 60.886 18.338 60.886 19.298V24.5H59.158ZM70.4605 24.608C69.7405 24.608 69.1165 24.506 68.5885 24.302C68.0725 24.098 67.6705 23.75 67.3825 23.258C67.1065 22.754 66.9685 22.076 66.9685 21.224V11.972H68.6245V21.44C68.6245 21.956 68.7625 22.358 69.0385 22.646C69.3265 22.922 69.7285 23.06 70.2445 23.06H71.9365V24.608H70.4605ZM65.3125 16.184V14.888H71.9365V16.184H65.3125ZM74.6326 24.5V14.402C74.6326 13.334 74.9146 12.548 75.4786 12.044C76.0426 11.54 76.8706 11.288 77.9626 11.288H79.1506V12.728H77.6746C77.2306 12.728 76.8886 12.854 76.6486 13.106C76.4086 13.346 76.2886 13.682 76.2886 14.114V24.5H74.6326ZM73.3006 16.292V14.996H79.3306V16.292H73.3006ZM85.5586 24.824C84.7186 24.824 83.9806 24.68 83.3446 24.392C82.7086 24.104 82.1686 23.726 81.7246 23.258C81.2926 22.778 80.9626 22.244 80.7346 21.656C80.5186 21.068 80.4106 20.468 80.4106 19.856V19.532C80.4106 18.92 80.5246 18.32 80.7526 17.732C80.9806 17.132 81.3166 16.598 81.7606 16.13C82.2046 15.65 82.7446 15.272 83.3806 14.996C84.0166 14.708 84.7426 14.564 85.5586 14.564C86.3746 14.564 87.1006 14.708 87.7366 14.996C88.3726 15.272 88.9126 15.65 89.3566 16.13C89.8006 16.598 90.1366 17.132 90.3646 17.732C90.5926 18.32 90.7066 18.92 90.7066 19.532V19.856C90.7066 20.468 90.5926 21.068 90.3646 21.656C90.1486 22.244 89.8186 22.778 89.3746 23.258C88.9426 23.726 88.4086 24.104 87.7726 24.392C87.1366 24.68 86.3986 24.824 85.5586 24.824ZM85.5586 23.276C86.2786 23.276 86.8906 23.12 87.3946 22.808C87.9106 22.484 88.3006 22.052 88.5646 21.512C88.8406 20.972 88.9786 20.366 88.9786 19.694C88.9786 19.01 88.8406 18.398 88.5646 17.858C88.2886 17.318 87.8926 16.892 87.3766 16.58C86.8726 16.268 86.2666 16.112 85.5586 16.112C84.8626 16.112 84.2566 16.268 83.7406 16.58C83.2246 16.892 82.8286 17.318 82.5526 17.858C82.2766 18.398 82.1386 19.01 82.1386 19.694C82.1386 20.366 82.2706 20.972 82.5346 21.512C82.8106 22.052 83.2006 22.484 83.7046 22.808C84.2206 23.12 84.8386 23.276 85.5586 23.276ZM93.4027 24.5V11.36H95.1307V24.5H93.4027ZM92.0707 12.728V11.36H95.1307V12.728H92.0707ZM98.9131 24.5V14.888H100.641V24.5H98.9131ZM97.4371 16.256V14.888H100.641V16.256H97.4371ZM99.3991 13.34C99.0151 13.34 98.7271 13.238 98.5351 13.034C98.3551 12.83 98.2651 12.572 98.2651 12.26C98.2651 11.948 98.3551 11.69 98.5351 11.486C98.7271 11.282 99.0151 11.18 99.3991 11.18C99.7831 11.18 100.065 11.282 100.245 11.486C100.437 11.69 100.533 11.948 100.533 12.26C100.533 12.572 100.437 12.83 100.245 13.034C100.065 13.238 99.7831 13.34 99.3991 13.34ZM108.41 24.824C107.57 24.824 106.832 24.68 106.196 24.392C105.56 24.104 105.02 23.726 104.576 23.258C104.144 22.778 103.814 22.244 103.586 21.656C103.37 21.068 103.262 20.468 103.262 19.856V19.532C103.262 18.92 103.376 18.32 103.604 17.732C103.832 17.132 104.168 16.598 104.612 16.13C105.056 15.65 105.596 15.272 106.232 14.996C106.868 14.708 107.594 14.564 108.41 14.564C109.226 14.564 109.952 14.708 110.588 14.996C111.224 15.272 111.764 15.65 112.208 16.13C112.652 16.598 112.988 17.132 113.216 17.732C113.444 18.32 113.558 18.92 113.558 19.532V19.856C113.558 20.468 113.444 21.068 113.216 21.656C113 22.244 112.67 22.778 112.226 23.258C111.794 23.726 111.26 24.104 110.624 24.392C109.988 24.68 109.25 24.824 108.41 24.824ZM108.41 23.276C109.13 23.276 109.742 23.12 110.246 22.808C110.762 22.484 111.152 22.052 111.416 21.512C111.692 20.972 111.83 20.366 111.83 19.694C111.83 19.01 111.692 18.398 111.416 17.858C111.14 17.318 110.744 16.892 110.228 16.58C109.724 16.268 109.118 16.112 108.41 16.112C107.714 16.112 107.108 16.268 106.592 16.58C106.076 16.892 105.68 17.318 105.404 17.858C105.128 18.398 104.99 19.01 104.99 19.694C104.99 20.366 105.122 20.972 105.386 21.512C105.662 22.052 106.052 22.484 106.556 22.808C107.072 23.12 107.69 23.276 108.41 23.276Z" fill="white"/>
</g>
<rect x="0.5" y="0.5" width="120" height="35" rx="5.5" stroke="#EC6127"/>
</svg>
