<svg width="115" height="36" viewBox="0 0 115 36" fill="none" xmlns="http://www.w3.org/2000/svg">
<rect x="0.5" y="0.5" width="113.75" height="35" rx="5.5" fill="#F08152"/>
<path d="M19.9375 12.1406V5.5H10.1719C9.52246 5.5 9 6.02246 9 6.67188V29.3281C9 29.9775 9.52246 30.5 10.1719 30.5H26.5781C27.2275 30.5 27.75 29.9775 27.75 29.3281V13.3125H21.1094C20.4648 13.3125 19.9375 12.7852 19.9375 12.1406ZM23.0625 23.6641C23.0625 23.9863 22.7988 24.25 22.4766 24.25H14.2734C13.9512 24.25 13.6875 23.9863 13.6875 23.6641V23.2734C13.6875 22.9512 13.9512 22.6875 14.2734 22.6875H22.4766C22.7988 22.6875 23.0625 22.9512 23.0625 23.2734V23.6641ZM23.0625 20.5391C23.0625 20.8613 22.7988 21.125 22.4766 21.125H14.2734C13.9512 21.125 13.6875 20.8613 13.6875 20.5391V20.1484C13.6875 19.8262 13.9512 19.5625 14.2734 19.5625H22.4766C22.7988 19.5625 23.0625 19.8262 23.0625 20.1484V20.5391ZM23.0625 17.0234V17.4141C23.0625 17.7363 22.7988 18 22.4766 18H14.2734C13.9512 18 13.6875 17.7363 13.6875 17.4141V17.0234C13.6875 16.7012 13.9512 16.4375 14.2734 16.4375H22.4766C22.7988 16.4375 23.0625 16.7012 23.0625 17.0234ZM27.75 11.4521V11.75H21.5V5.5H21.7979C22.1104 5.5 22.4082 5.62207 22.6279 5.8418L27.4082 10.627C27.6279 10.8467 27.75 11.1445 27.75 11.4521Z" fill="white"/>
<g style="mix-blend-mode:hard-light">
<path d="M37.658 24.5V11.288H39.422V24.5H37.658ZM45.776 24.5L41.42 18.65H43.49L47.918 24.5H45.776ZM38.756 19.748V18.182H42.284C42.836 18.182 43.31 18.068 43.706 17.84C44.102 17.612 44.408 17.3 44.624 16.904C44.84 16.496 44.948 16.034 44.948 15.518C44.948 15.002 44.84 14.546 44.624 14.15C44.408 13.742 44.102 13.424 43.706 13.196C43.31 12.956 42.836 12.836 42.284 12.836H38.756V11.288H41.96C42.92 11.288 43.76 11.432 44.48 11.72C45.2 12.008 45.758 12.452 46.154 13.052C46.55 13.652 46.748 14.426 46.748 15.374V15.662C46.748 16.61 46.544 17.384 46.136 17.984C45.74 18.584 45.182 19.028 44.462 19.316C43.754 19.604 42.92 19.748 41.96 19.748H38.756ZM53.9197 24.824C53.0797 24.824 52.3537 24.68 51.7417 24.392C51.1297 24.104 50.6317 23.726 50.2477 23.258C49.8637 22.778 49.5757 22.244 49.3837 21.656C49.2037 21.068 49.1137 20.468 49.1137 19.856V19.532C49.1137 18.908 49.2037 18.302 49.3837 17.714C49.5757 17.126 49.8637 16.598 50.2477 16.13C50.6317 15.65 51.1177 15.272 51.7057 14.996C52.3057 14.708 53.0077 14.564 53.8117 14.564C54.8557 14.564 55.7137 14.792 56.3857 15.248C57.0697 15.692 57.5737 16.268 57.8977 16.976C58.2337 17.684 58.4017 18.44 58.4017 19.244V20.018H49.8697V18.722H57.1417L56.7457 19.424C56.7457 18.74 56.6377 18.152 56.4217 17.66C56.2057 17.156 55.8817 16.766 55.4497 16.49C55.0177 16.214 54.4717 16.076 53.8117 16.076C53.1277 16.076 52.5577 16.232 52.1017 16.544C51.6577 16.856 51.3217 17.282 51.0937 17.822C50.8777 18.362 50.7697 18.986 50.7697 19.694C50.7697 20.378 50.8777 20.996 51.0937 21.548C51.3217 22.088 51.6697 22.52 52.1377 22.844C52.6057 23.156 53.1997 23.312 53.9197 23.312C54.6757 23.312 55.2877 23.144 55.7557 22.808C56.2357 22.472 56.5237 22.082 56.6197 21.638H58.2397C58.1077 22.298 57.8437 22.868 57.4477 23.348C57.0517 23.828 56.5537 24.194 55.9537 24.446C55.3537 24.698 54.6757 24.824 53.9197 24.824ZM64.0052 24.788C62.7452 24.788 61.7672 24.518 61.0712 23.978C60.3872 23.438 60.0332 22.7 60.0092 21.764H61.6292C61.6532 22.136 61.8392 22.49 62.1872 22.826C62.5472 23.15 63.1532 23.312 64.0052 23.312C64.7732 23.312 65.3612 23.162 65.7692 22.862C66.1772 22.55 66.3812 22.172 66.3812 21.728C66.3812 21.332 66.2312 21.026 65.9312 20.81C65.6312 20.582 65.1452 20.432 64.4732 20.36L63.4292 20.252C62.5172 20.156 61.7732 19.886 61.1972 19.442C60.6212 18.986 60.3332 18.35 60.3332 17.534C60.3332 16.922 60.4892 16.4 60.8012 15.968C61.1132 15.524 61.5452 15.188 62.0972 14.96C62.6492 14.72 63.2852 14.6 64.0052 14.6C65.0852 14.6 65.9612 14.84 66.6332 15.32C67.3052 15.8 67.6532 16.514 67.6772 17.462H66.0572C66.0452 17.078 65.8652 16.754 65.5172 16.49C65.1812 16.214 64.6772 16.076 64.0052 16.076C63.3332 16.076 62.8232 16.214 62.4752 16.49C62.1272 16.766 61.9532 17.114 61.9532 17.534C61.9532 17.894 62.0732 18.182 62.3132 18.398C62.5652 18.614 62.9732 18.752 63.5372 18.812L64.5812 18.92C65.6132 19.028 66.4412 19.316 67.0652 19.784C67.6892 20.24 68.0012 20.888 68.0012 21.728C68.0012 22.328 67.8272 22.862 67.4792 23.33C67.1432 23.786 66.6752 24.146 66.0752 24.41C65.4752 24.662 64.7852 24.788 64.0052 24.788ZM73.8356 24.788C72.6956 24.788 71.8196 24.416 71.2076 23.672C70.5956 22.928 70.2896 21.854 70.2896 20.45V14.87H72.0176V20.792C72.0176 21.548 72.2216 22.142 72.6296 22.574C73.0376 22.994 73.5896 23.204 74.2856 23.204C75.0056 23.204 75.5936 22.976 76.0496 22.52C76.5056 22.052 76.7336 21.416 76.7336 20.612V14.87H78.4616V24.5H77.0936V20.378H77.3096C77.3096 21.326 77.1836 22.13 76.9316 22.79C76.6796 23.438 76.3016 23.936 75.7976 24.284C75.3056 24.62 74.6756 24.788 73.9076 24.788H73.8356ZM81.8083 24.5V14.888H83.1763V19.01H82.9603C82.9603 18.074 83.0803 17.282 83.3203 16.634C83.5723 15.974 83.9443 15.47 84.4363 15.122C84.9283 14.774 85.5523 14.6 86.3083 14.6H86.3803C87.1363 14.6 87.7603 14.774 88.2523 15.122C88.7563 15.47 89.1283 15.974 89.3683 16.634C89.6083 17.282 89.7283 18.074 89.7283 19.01H89.2243C89.2243 18.074 89.3503 17.282 89.6023 16.634C89.8543 15.974 90.2263 15.47 90.7183 15.122C91.2223 14.774 91.8523 14.6 92.6083 14.6H92.6803C93.4363 14.6 94.0663 14.774 94.5703 15.122C95.0743 15.47 95.4463 15.974 95.6863 16.634C95.9383 17.282 96.0643 18.074 96.0643 19.01V24.5H94.3363V18.632C94.3363 17.852 94.1443 17.252 93.7603 16.832C93.3763 16.4 92.8423 16.184 92.1583 16.184C91.4503 16.184 90.8803 16.412 90.4483 16.868C90.0163 17.312 89.8003 17.936 89.8003 18.74V24.5H88.0723V18.632C88.0723 17.852 87.8803 17.252 87.4963 16.832C87.1123 16.4 86.5783 16.184 85.8943 16.184C85.1863 16.184 84.6163 16.412 84.1843 16.868C83.7523 17.312 83.5363 17.936 83.5363 18.74V24.5H81.8083ZM103.314 24.824C102.474 24.824 101.748 24.68 101.136 24.392C100.524 24.104 100.026 23.726 99.6423 23.258C99.2583 22.778 98.9703 22.244 98.7783 21.656C98.5983 21.068 98.5083 20.468 98.5083 19.856V19.532C98.5083 18.908 98.5983 18.302 98.7783 17.714C98.9703 17.126 99.2583 16.598 99.6423 16.13C100.026 15.65 100.512 15.272 101.1 14.996C101.7 14.708 102.402 14.564 103.206 14.564C104.25 14.564 105.108 14.792 105.78 15.248C106.464 15.692 106.968 16.268 107.292 16.976C107.628 17.684 107.796 18.44 107.796 19.244V20.018H99.2643V18.722H106.536L106.14 19.424C106.14 18.74 106.032 18.152 105.816 17.66C105.6 17.156 105.276 16.766 104.844 16.49C104.412 16.214 103.866 16.076 103.206 16.076C102.522 16.076 101.952 16.232 101.496 16.544C101.052 16.856 100.716 17.282 100.488 17.822C100.272 18.362 100.164 18.986 100.164 19.694C100.164 20.378 100.272 20.996 100.488 21.548C100.716 22.088 101.064 22.52 101.532 22.844C102 23.156 102.594 23.312 103.314 23.312C104.07 23.312 104.682 23.144 105.15 22.808C105.63 22.472 105.918 22.082 106.014 21.638H107.634C107.502 22.298 107.238 22.868 106.842 23.348C106.446 23.828 105.948 24.194 105.348 24.446C104.748 24.698 104.07 24.824 103.314 24.824Z" fill="white"/>
</g>
<rect x="0.5" y="0.5" width="113.75" height="35" rx="5.5" stroke="#EC6127"/>
</svg>
