<svg width="119" height="36" viewBox="0 0 119 36" fill="none" xmlns="http://www.w3.org/2000/svg">
<rect x="0.5" y="0.5" width="118" height="35" rx="5.5" fill="#F08152"/>
<path d="M27.4938 11.8164C27.2539 10.7078 26.547 9.8347 25.6496 9.53841C24.0229 9 17.5 9 17.5 9C17.5 9 10.9771 9 9.3504 9.53841C8.45294 9.83475 7.74612 10.7078 7.50622 11.8164C7.07034 13.8258 7.07034 18.0182 7.07034 18.0182C7.07034 18.0182 7.07034 22.2106 7.50622 24.22C7.74612 25.3286 8.45294 26.1653 9.3504 26.4616C10.9771 27 17.5 27 17.5 27C17.5 27 24.0228 27 25.6496 26.4616C26.547 26.1653 27.2539 25.3286 27.4938 24.22C27.9296 22.2106 27.9296 18.0182 27.9296 18.0182C27.9296 18.0182 27.9296 13.8258 27.4938 11.8164V11.8164ZM15.3666 21.8246V14.2118L20.8185 18.0183L15.3666 21.8246V21.8246Z" fill="white"/>
<g style="mix-blend-mode:hard-light">
<path d="M38.464 19.388L34.288 11.36H36.124L39.652 18.236L38.968 18.038H41.092L40.372 18.236L43.684 11.36H45.412L41.488 19.388H38.464ZM39.112 24.5V19.028H40.84V24.5H39.112ZM50.8242 24.824C49.9842 24.824 49.2462 24.68 48.6102 24.392C47.9742 24.104 47.4342 23.726 46.9902 23.258C46.5582 22.778 46.2282 22.244 46.0002 21.656C45.7842 21.068 45.6762 20.468 45.6762 19.856V19.532C45.6762 18.92 45.7902 18.32 46.0182 17.732C46.2462 17.132 46.5822 16.598 47.0262 16.13C47.4702 15.65 48.0102 15.272 48.6462 14.996C49.2822 14.708 50.0082 14.564 50.8242 14.564C51.6402 14.564 52.3662 14.708 53.0022 14.996C53.6382 15.272 54.1782 15.65 54.6222 16.13C55.0662 16.598 55.4022 17.132 55.6302 17.732C55.8582 18.32 55.9722 18.92 55.9722 19.532V19.856C55.9722 20.468 55.8582 21.068 55.6302 21.656C55.4142 22.244 55.0842 22.778 54.6402 23.258C54.2082 23.726 53.6742 24.104 53.0382 24.392C52.4022 24.68 51.6642 24.824 50.8242 24.824ZM50.8242 23.276C51.5442 23.276 52.1562 23.12 52.6602 22.808C53.1762 22.484 53.5662 22.052 53.8302 21.512C54.1062 20.972 54.2442 20.366 54.2442 19.694C54.2442 19.01 54.1062 18.398 53.8302 17.858C53.5542 17.318 53.1582 16.892 52.6422 16.58C52.1382 16.268 51.5322 16.112 50.8242 16.112C50.1282 16.112 49.5222 16.268 49.0062 16.58C48.4902 16.892 48.0942 17.318 47.8182 17.858C47.5422 18.398 47.4042 19.01 47.4042 19.694C47.4042 20.366 47.5362 20.972 47.8002 21.512C48.0762 22.052 48.4662 22.484 48.9702 22.808C49.4862 23.12 50.1042 23.276 50.8242 23.276ZM61.8903 24.788C60.7503 24.788 59.8743 24.416 59.2623 23.672C58.6503 22.928 58.3443 21.854 58.3443 20.45V14.87H60.0723V20.792C60.0723 21.548 60.2763 22.142 60.6843 22.574C61.0923 22.994 61.6443 23.204 62.3403 23.204C63.0603 23.204 63.6483 22.976 64.1043 22.52C64.5603 22.052 64.7883 21.416 64.7883 20.612V14.87H66.5163V24.5H65.1483V20.378H65.3643C65.3643 21.326 65.2383 22.13 64.9863 22.79C64.7343 23.438 64.3563 23.936 63.8523 24.284C63.3603 24.62 62.7303 24.788 61.9623 24.788H61.8903ZM72.671 24.5V12.584H74.435V24.5H72.671ZM68.675 12.944V11.36H78.431V12.944H68.675ZM83.0544 24.788C81.9144 24.788 81.0384 24.416 80.4264 23.672C79.8144 22.928 79.5084 21.854 79.5084 20.45V14.87H81.2364V20.792C81.2364 21.548 81.4404 22.142 81.8484 22.574C82.2564 22.994 82.8084 23.204 83.5044 23.204C84.2244 23.204 84.8124 22.976 85.2684 22.52C85.7244 22.052 85.9524 21.416 85.9524 20.612V14.87H87.6804V24.5H86.3124V20.378H86.5284C86.5284 21.326 86.4024 22.13 86.1504 22.79C85.8984 23.438 85.5204 23.936 85.0164 24.284C84.5244 24.62 83.8944 24.788 83.1264 24.788H83.0544ZM96.1031 24.824C95.3111 24.824 94.6031 24.65 93.9791 24.302C93.3671 23.954 92.8811 23.45 92.5211 22.79C92.1611 22.118 91.9631 21.314 91.9271 20.378H92.3951V24.5H91.0271V11.36H92.7551V17.75L92.1431 19.064C92.1911 18.02 92.4011 17.168 92.7731 16.508C93.1451 15.848 93.6311 15.362 94.2311 15.05C94.8431 14.726 95.5151 14.564 96.2471 14.564C96.9311 14.564 97.5551 14.696 98.1191 14.96C98.6831 15.212 99.1691 15.566 99.5771 16.022C99.9851 16.466 100.297 16.988 100.513 17.588C100.729 18.176 100.837 18.812 100.837 19.496V19.82C100.837 20.504 100.723 21.146 100.495 21.746C100.279 22.346 99.9611 22.88 99.5411 23.348C99.1211 23.804 98.6171 24.164 98.0291 24.428C97.4531 24.692 96.8111 24.824 96.1031 24.824ZM95.9051 23.312C96.5531 23.312 97.1171 23.156 97.5971 22.844C98.0771 22.532 98.4491 22.106 98.7131 21.566C98.9771 21.014 99.1091 20.378 99.1091 19.658C99.1091 18.938 98.9711 18.308 98.6951 17.768C98.4311 17.228 98.0591 16.814 97.5791 16.526C97.0991 16.226 96.5411 16.076 95.9051 16.076C95.3291 16.076 94.7951 16.208 94.3031 16.472C93.8111 16.724 93.4151 17.096 93.1151 17.588C92.8271 18.068 92.6831 18.65 92.6831 19.334V20.162C92.6831 20.822 92.8331 21.386 93.1331 21.854C93.4331 22.322 93.8291 22.682 94.3211 22.934C94.8131 23.186 95.3411 23.312 95.9051 23.312ZM107.523 24.824C106.683 24.824 105.957 24.68 105.345 24.392C104.733 24.104 104.235 23.726 103.851 23.258C103.467 22.778 103.179 22.244 102.987 21.656C102.807 21.068 102.717 20.468 102.717 19.856V19.532C102.717 18.908 102.807 18.302 102.987 17.714C103.179 17.126 103.467 16.598 103.851 16.13C104.235 15.65 104.721 15.272 105.309 14.996C105.909 14.708 106.611 14.564 107.415 14.564C108.459 14.564 109.317 14.792 109.989 15.248C110.673 15.692 111.177 16.268 111.501 16.976C111.837 17.684 112.005 18.44 112.005 19.244V20.018H103.473V18.722H110.745L110.349 19.424C110.349 18.74 110.241 18.152 110.025 17.66C109.809 17.156 109.485 16.766 109.053 16.49C108.621 16.214 108.075 16.076 107.415 16.076C106.731 16.076 106.161 16.232 105.705 16.544C105.261 16.856 104.925 17.282 104.697 17.822C104.481 18.362 104.373 18.986 104.373 19.694C104.373 20.378 104.481 20.996 104.697 21.548C104.925 22.088 105.273 22.52 105.741 22.844C106.209 23.156 106.803 23.312 107.523 23.312C108.279 23.312 108.891 23.144 109.359 22.808C109.839 22.472 110.127 22.082 110.223 21.638H111.843C111.711 22.298 111.447 22.868 111.051 23.348C110.655 23.828 110.157 24.194 109.557 24.446C108.957 24.698 108.279 24.824 107.523 24.824Z" fill="white"/>
</g>
<rect x="0.5" y="0.5" width="118" height="35" rx="5.5" stroke="#EC6127"/>
</svg>
